<?xml version="1.0" encoding="UTF-8" standalone="no"?>
<!DOCTYPE svg PUBLIC "-//W3C//DTD SVG 1.1//EN" "http://www.w3.org/Graphics/SVG/1.1/DTD/svg11.dtd">
<svg width="100%" height="100%" viewBox="0 0 660 130" version="1.1" xmlns="http://www.w3.org/2000/svg" xmlns:xlink="http://www.w3.org/1999/xlink" xml:space="preserve" xmlns:serif="http://www.serif.com/" style="fill-rule:evenodd;clip-rule:evenodd;stroke-linejoin:round;stroke-miterlimit:2;">
    <path d="M38.26,21.55L25.79,21.55L25.79,113.3L38.26,113.3L38.26,116.71L14.83,116.71L14.83,18.14L38.26,18.14L38.26,21.55Z" style="fill:white;fill-rule:nonzero;"/>
    <rect x="83.21" y="84.17" width="6.82" height="22.65" style="fill:white;fill-rule:nonzero;"/>
    <path d="M160.13,89.37L160.13,92.39C155.47,92.91 152.36,93.34 150.79,93.68C148.48,94.13 145.18,94.98 140.89,96.25C139.88,93.34 139.23,90.96 138.93,89.09C137.77,90.92 136.66,92.33 135.58,93.34C132.97,95.76 129.58,96.97 125.4,96.97C118.54,96.97 112.91,94.36 108.52,89.14C103.86,83.66 101.53,76.78 101.53,68.51C101.53,60.24 103.8,53.68 108.35,48.16C112.56,43.02 117.97,40.45 124.56,40.45C127.73,40.45 130.45,41.08 132.72,42.35C133.91,43.02 135.31,44.16 136.91,45.76L136.91,31.22C136.87,27.38 136.48,25.07 135.74,24.29C134.85,23.43 132.55,23.02 128.86,23.06L128.86,20.04C136.46,19.48 143.96,18.14 151.34,16.01L151.34,81.93C151.41,85.29 151.88,87.34 152.74,88.08C153.71,88.94 156.17,89.37 160.12,89.37L160.13,89.37ZM126.25,43.63C122.37,43.63 119.71,45.94 118.25,50.56C116.94,54.74 116.29,60.61 116.29,68.17C116.29,75.73 116.89,81.31 118.08,85.67C118.79,88.21 119.93,90.19 121.49,91.63C123.06,93.07 124.88,93.78 126.97,93.78C128.8,93.78 130.44,93.15 131.89,91.88C133.34,90.61 134.39,88.88 135.02,86.68C136.4,82.02 137.09,75.96 137.09,68.51C137.09,61.06 136.42,55.04 135.08,50.79C133.55,46.02 130.61,43.63 126.25,43.63Z" style="fill:white;fill-rule:nonzero;"/>
    <path d="M187.27,38.21L187.27,84.62C187.27,87.71 187.77,89.65 188.78,90.44C189.67,91.07 191.91,91.47 195.49,91.61L195.49,94.85C189.23,94.37 184.06,94.12 180,94.12C175.94,94.12 170.87,94.36 164.57,94.85L164.57,91.61C168.15,91.46 170.38,91.07 171.28,90.44C172.29,89.66 172.79,87.72 172.79,84.62L172.79,53.37C172.79,51.1 172.71,49.48 172.54,48.53C172.37,47.58 172.06,46.88 171.62,46.43C170.72,45.61 168.43,45.2 164.74,45.2L164.74,42.24C172.42,41.64 179.93,40.3 187.27,38.21ZM179.5,15.4C181.7,15.4 183.58,16.26 185.15,17.97C186.72,19.68 187.5,21.77 187.5,24.23C187.5,26.69 186.74,28.81 185.21,30.49C183.68,32.17 181.78,33.01 179.51,33.01C177.24,33.01 175.32,32.15 173.75,30.44C172.18,28.73 171.4,26.64 171.4,24.18C171.4,21.72 172.16,19.59 173.69,17.92C175.18,16.24 177.12,15.4 179.5,15.4Z" style="fill:white;fill-rule:nonzero;"/>
    <path d="M210.43,57.77L201.48,41.16L219.43,41.16L210.43,57.77ZM210.43,77.85L219.43,94.46L201.48,94.46L210.43,77.85Z" style="fill:white;fill-rule:nonzero;"/>
    <path d="M234.57,96.41L234.57,75.72L237.92,75.72C238.33,78.78 239.02,81.39 239.99,83.55C241.07,86.01 242.65,87.96 244.74,89.39C246.83,90.82 249.12,91.54 251.62,91.54C254.42,91.54 256.78,90.66 258.72,88.91C260.62,87.2 261.57,85.16 261.57,82.82C261.57,80.48 260.38,78.37 257.99,76.61C256.61,75.64 253.87,74.02 249.77,71.75C243.32,68.21 239.31,65.54 237.75,63.75C235.55,61.25 234.45,58.18 234.45,54.52C234.45,49.79 236.26,46.04 239.87,43.28C243.56,40.52 248.09,39.14 253.46,39.14C258.23,39.14 262.52,40.65 266.32,43.67L269.12,37.63L271.3,37.63L271.3,56.64L267.95,56.64C267.54,53.66 266.91,51.24 266.05,49.37C264.19,45.34 260.85,43.33 256.04,43.33C253.24,43.33 250.86,44.15 248.88,45.79C247.09,47.28 246.2,49.05 246.2,51.1C246.2,52.93 247.06,54.55 248.77,55.96C249.66,56.71 251.58,57.82 254.53,59.31C259.41,61.77 262.97,63.73 265.21,65.18C267.97,66.93 269.91,68.48 271.02,69.82C272.92,72.02 273.87,74.93 273.87,78.54C273.87,83.42 272.1,87.5 268.56,90.79C265.02,94.03 260.32,95.65 254.47,95.65C250.07,95.65 246.27,94.57 243.06,92.41C242.17,91.85 241.1,91.03 239.87,89.95L236.74,96.38L234.56,96.38L234.57,96.41Z" style="fill:white;fill-rule:nonzero;"/>
    <path d="M293.24,85.92L293.24,48.04C293.24,46.13 292.96,44.83 292.4,44.13C291.73,43.24 290.16,42.69 287.7,42.48C286.39,42.37 285.02,42.31 283.56,42.28L283.56,39.22C290.08,39.62 295.82,39.82 300.78,39.82C305.74,39.82 311.48,39.62 318,39.22L318,42.28C314.72,42.33 312.43,42.55 311.12,42.92C309.74,43.32 308.9,44.11 308.6,45.3C308.41,45.89 308.32,46.8 308.32,48.04L308.32,85.92C308.36,87.83 308.64,89.13 309.16,89.82C309.83,90.71 311.4,91.26 313.86,91.47C315.05,91.58 316.43,91.64 318,91.67L318,94.73C311.4,94.33 305.66,94.13 300.78,94.13C295.9,94.13 290.16,94.33 283.56,94.73L283.56,91.67C286.88,91.59 289.17,91.38 290.44,91.03C291.78,90.6 292.62,89.81 292.96,88.65C293.15,88.03 293.24,87.12 293.24,85.91L293.24,85.92Z" style="fill:white;fill-rule:nonzero;"/>
    <path d="M407.24,91.03L407.24,94.35C404.07,95.17 401.24,95.58 398.74,95.58C394.9,95.58 392.01,94.48 390.07,92.28C388.73,90.75 387.85,88.44 387.44,85.35C383.94,92.25 378.7,95.69 371.73,95.69C367.15,95.69 363.32,94.44 360.27,91.94C356.88,89.18 355.18,85.49 355.18,80.87C355.18,70.28 365.36,63.61 385.71,60.85L385.71,53.13C385.71,49.74 385.24,47.35 384.31,45.97C382.86,43.81 380.53,42.73 377.32,42.73C375.31,42.73 373.5,43.21 371.9,44.18C370.33,45.11 369.55,46.27 369.55,47.65C369.55,48.1 369.61,48.6 369.72,49.16C370.02,50.84 370.17,52.01 370.17,52.68C370.17,56.67 368.18,58.66 364.19,58.66C360.61,58.66 358.82,56.89 358.82,53.35C358.82,49.55 360.68,46.29 364.41,43.57C368.4,40.63 373.37,39.15 379.34,39.15C387.5,39.15 393.39,41.63 397.01,46.59C398.54,48.75 399.51,51.92 399.92,56.09C400.11,57.92 400.2,60.55 400.2,63.97L400.2,83.76C400.2,86.37 400.37,88.23 400.7,89.35C401.15,90.84 402.28,91.59 404.11,91.59C404.93,91.59 405.97,91.4 407.24,91.03ZM385.71,64.04C381.35,64.9 378.05,65.94 375.81,67.17C371.71,69.44 369.66,73.34 369.66,78.85C369.66,82.09 370.31,84.65 371.62,86.51C372.96,88.49 374.88,89.47 377.38,89.47C379.21,89.47 380.79,88.94 382.13,87.88C383.47,86.82 384.4,85.34 384.93,83.43C385.45,81.72 385.71,78.9 385.71,74.99L385.71,64.03L385.71,64.04Z" style="fill:white;fill-rule:nonzero;"/>
    <path d="M422.81,85.92L422.81,48.04C422.81,46.13 422.53,44.83 421.97,44.13C421.3,43.24 419.73,42.69 417.27,42.48C415.96,42.37 414.59,42.31 413.13,42.28L413.13,39.22C419.65,39.62 425.39,39.82 430.35,39.82C435.31,39.82 441.05,39.62 447.57,39.22L447.57,42.28C444.29,42.33 442,42.55 440.69,42.92C439.31,43.32 438.47,44.11 438.17,45.3C437.98,45.89 437.89,46.8 437.89,48.04L437.89,85.92C437.93,87.83 438.21,89.13 438.73,89.82C439.4,90.71 440.97,91.26 443.43,91.47C444.62,91.58 446,91.64 447.57,91.67L447.57,94.73C440.97,94.33 435.23,94.13 430.35,94.13C425.47,94.13 419.73,94.33 413.13,94.73L413.13,91.67C416.45,91.59 418.74,91.38 420.01,91.03C421.35,90.6 422.19,89.81 422.53,88.65C422.72,88.03 422.81,87.12 422.81,85.91L422.81,85.92Z" style="fill:white;fill-rule:nonzero;"/>
    <rect x="458.53" y="31.03" width="6.82" height="22.65" style="fill:white;fill-rule:nonzero;"/>
    <path d="M510.46,86.41L510.46,91.05C508.75,92.13 507.29,92.95 506.1,93.51C503.38,94.81 500.4,95.47 497.15,95.47C492.15,95.47 488.4,94.14 485.88,91.47C483.36,88.8 482.11,84.83 482.11,79.53L482.11,78.08L482.89,44.81L476.18,44.81L476.18,40.56C480.61,40.45 484.3,38.85 487.25,35.75C490.12,32.66 492.11,28.56 493.23,23.45L497.65,23.45L497.37,40.39L508.89,40.39L508.89,44.81L497.32,44.81L497.1,78.69C497.06,81.37 497.19,83.65 497.49,85.51C497.75,87.04 498.48,88.21 499.67,89.03C500.49,89.63 501.5,89.93 502.69,89.93C505.15,89.93 507.74,88.76 510.46,86.41Z" style="fill:white;fill-rule:nonzero;"/>
    <path d="M538.45,38.21L538.45,84.62C538.45,87.71 538.95,89.65 539.96,90.44C540.86,91.07 543.09,91.47 546.67,91.61L546.67,94.85C540.41,94.37 535.25,94.12 531.18,94.12C527.11,94.12 522.05,94.36 515.75,94.85L515.75,91.61C519.33,91.46 521.56,91.07 522.46,90.44C523.47,89.66 523.97,87.72 523.97,84.62L523.97,53.37C523.97,51.1 523.89,49.48 523.72,48.53C523.55,47.58 523.25,46.88 522.8,46.43C521.91,45.61 519.61,45.2 515.92,45.2L515.92,42.24C523.6,41.64 531.11,40.3 538.45,38.21ZM530.68,15.4C532.88,15.4 534.76,16.26 536.33,17.97C537.9,19.68 538.68,21.77 538.68,24.23C538.68,26.69 537.92,28.81 536.39,30.49C534.86,32.17 532.96,33.01 530.69,33.01C528.42,33.01 526.5,32.15 524.93,30.44C523.36,28.73 522.58,26.64 522.58,24.18C522.58,21.72 523.34,19.59 524.87,17.92C526.36,16.24 528.3,15.4 530.68,15.4Z" style="fill:white;fill-rule:nonzero;"/>
    <path d="M561.59,57.77L552.64,41.16L570.59,41.16L561.59,57.77ZM561.59,77.85L570.59,94.46L552.64,94.46L561.59,77.85Z" style="fill:white;fill-rule:nonzero;"/>
    <path d="M619.96,113.3L632.43,113.3L632.43,21.55L619.96,21.55L619.96,18.14L643.39,18.14L643.39,116.71L619.96,116.71L619.96,113.3Z" style="fill:white;fill-rule:nonzero;"/>
</svg>
