<?xml version="1.0" encoding="UTF-8"?>
<svg id="a" xmlns="http://www.w3.org/2000/svg" width="660" height="130" viewBox="0 0 660 130">

    <path class="c" style="fill:white" d="M38.26,21.55h-12.47V113.3h12.47v3.41H14.83V18.14h23.43v3.41Z"/>
    <path class="c" style="fill:white" d="M90.03,84.17v22.65h-6.82v-22.65h6.82Z"/>
    <path class="c" style="fill:white" d="M160.13,89.37v3.02c-4.66,.52-7.77,.95-9.34,1.29-2.31,.45-5.61,1.3-9.9,2.57-1.01-2.91-1.66-5.29-1.96-7.16-1.16,1.83-2.27,3.24-3.35,4.25-2.61,2.42-6,3.63-10.18,3.63-6.86,0-12.49-2.61-16.88-7.83-4.66-5.48-6.99-12.36-6.99-20.63s2.27-14.83,6.82-20.35c4.21-5.14,9.62-7.71,16.21-7.71,3.17,0,5.89,.63,8.16,1.9,1.19,.67,2.59,1.81,4.19,3.41v-14.54c-.04-3.84-.43-6.15-1.17-6.93-.89-.86-3.19-1.27-6.88-1.23v-3.02c7.6-.56,15.1-1.9,22.48-4.03V81.93c.07,3.36,.54,5.41,1.4,6.15,.97,.86,3.43,1.29,7.38,1.29Zm-33.88-45.74c-3.88,0-6.54,2.31-8,6.93-1.31,4.18-1.96,10.05-1.96,17.61s.6,13.14,1.79,17.5c.71,2.54,1.85,4.52,3.41,5.96,1.57,1.44,3.39,2.15,5.48,2.15,1.83,0,3.47-.63,4.92-1.9,1.45-1.27,2.5-3,3.13-5.2,1.38-4.66,2.07-10.72,2.07-18.17s-.67-13.47-2.01-17.72c-1.53-4.77-4.47-7.16-8.83-7.16Z"/>
    <path class="c" style="fill:white" d="M187.27,38.21v46.41c0,3.09,.5,5.03,1.51,5.82,.89,.63,3.13,1.03,6.71,1.17v3.24c-6.26-.48-11.43-.73-15.49-.73s-9.13,.24-15.43,.73v-3.24c3.58-.15,5.81-.54,6.71-1.17,1.01-.78,1.51-2.72,1.51-5.82v-31.25c0-2.27-.08-3.89-.25-4.84-.17-.95-.48-1.65-.92-2.1-.9-.82-3.19-1.23-6.88-1.23v-2.96c7.68-.6,15.19-1.94,22.53-4.03Zm-7.77-22.81c2.2,0,4.08,.86,5.65,2.57,1.57,1.71,2.35,3.8,2.35,6.26s-.76,4.58-2.29,6.26c-1.53,1.68-3.43,2.52-5.7,2.52s-4.19-.86-5.76-2.57c-1.57-1.71-2.35-3.8-2.35-6.26s.76-4.59,2.29-6.26c1.49-1.68,3.43-2.52,5.81-2.52Z"/>
    <path class="c" style="fill:white" d="M210.43,57.77l-8.95-16.61h17.95l-9,16.61Zm0,20.08l9,16.61h-17.95l8.95-16.61Z"/>
    <path class="c" style="fill:white" d="M234.57,96.41v-20.69h3.35c.41,3.06,1.1,5.67,2.07,7.83,1.08,2.46,2.66,4.41,4.75,5.84,2.09,1.43,4.38,2.15,6.88,2.15,2.8,0,5.16-.88,7.1-2.63,1.9-1.71,2.85-3.75,2.85-6.09s-1.19-4.45-3.58-6.21c-1.38-.97-4.12-2.59-8.22-4.86-6.45-3.54-10.46-6.21-12.02-8-2.2-2.5-3.3-5.57-3.3-9.23,0-4.73,1.81-8.48,5.42-11.24,3.69-2.76,8.22-4.14,13.59-4.14,4.77,0,9.06,1.51,12.86,4.53l2.8-6.04h2.18v19.01h-3.35c-.41-2.98-1.04-5.4-1.9-7.27-1.86-4.03-5.2-6.04-10.01-6.04-2.8,0-5.18,.82-7.16,2.46-1.79,1.49-2.68,3.26-2.68,5.31,0,1.83,.86,3.45,2.57,4.86,.89,.75,2.81,1.86,5.76,3.35,4.88,2.46,8.44,4.42,10.68,5.87,2.76,1.75,4.7,3.3,5.81,4.64,1.9,2.2,2.85,5.11,2.85,8.72,0,4.88-1.77,8.96-5.31,12.25-3.54,3.24-8.24,4.86-14.09,4.86-4.4,0-8.2-1.08-11.41-3.24-.89-.56-1.96-1.38-3.19-2.46l-3.13,6.43h-2.18Z"/>
    <path class="c" style="fill:white" d="M293.24,85.92V48.04c0-1.91-.28-3.21-.84-3.91-.67-.89-2.24-1.44-4.7-1.65-1.31-.11-2.68-.17-4.14-.2v-3.06c6.52,.4,12.26,.6,17.22,.6s10.7-.2,17.22-.6v3.06c-3.28,.05-5.57,.27-6.88,.64-1.38,.4-2.22,1.19-2.52,2.38-.19,.59-.28,1.5-.28,2.74v37.88c.04,1.91,.32,3.21,.84,3.9,.67,.89,2.24,1.44,4.7,1.65,1.19,.11,2.57,.17,4.14,.2v3.06c-6.6-.4-12.34-.6-17.22-.6s-10.62,.2-17.22,.6v-3.06c3.32-.08,5.61-.29,6.88-.64,1.34-.43,2.18-1.22,2.52-2.38,.19-.62,.28-1.53,.28-2.74Z"/>
    <path class="c" style="fill:white" d="M407.24,91.05v3.3c-3.17,.82-6,1.23-8.5,1.23-3.84,0-6.73-1.1-8.67-3.3-1.34-1.53-2.22-3.84-2.63-6.93-3.5,6.9-8.74,10.34-15.71,10.34-4.58,0-8.41-1.25-11.46-3.75-3.39-2.76-5.09-6.45-5.09-11.07,0-10.59,10.18-17.26,30.53-20.02v-7.72c0-3.39-.47-5.78-1.4-7.16-1.45-2.16-3.78-3.24-6.99-3.24-2.01,0-3.82,.48-5.42,1.45-1.57,.93-2.35,2.09-2.35,3.47,0,.45,.06,.95,.17,1.51,.3,1.68,.45,2.85,.45,3.52,0,3.99-1.99,5.98-5.98,5.98-3.58,0-5.37-1.77-5.37-5.31,0-3.8,1.86-7.06,5.59-9.78,3.99-2.94,8.96-4.42,14.93-4.42,8.16,0,14.05,2.48,17.67,7.44,1.53,2.16,2.5,5.33,2.91,9.5,.19,1.83,.28,4.46,.28,7.88v19.79c0,2.61,.17,4.47,.5,5.59,.45,1.49,1.58,2.24,3.41,2.24,.82,0,1.86-.19,3.13-.56Zm-21.53-27.01c-4.36,.86-7.66,1.9-9.9,3.13-4.1,2.27-6.15,6.17-6.15,11.68,0,3.24,.65,5.8,1.96,7.66,1.34,1.98,3.26,2.96,5.76,2.96,1.83,0,3.41-.53,4.75-1.59s2.27-2.54,2.8-4.45c.52-1.71,.78-4.53,.78-8.44v-10.96Z"/>
    <path class="c" style="fill:white" d="M422.81,85.92V48.04c0-1.91-.28-3.21-.84-3.91-.67-.89-2.24-1.44-4.7-1.65-1.31-.11-2.68-.17-4.14-.2v-3.06c6.52,.4,12.26,.6,17.22,.6s10.7-.2,17.22-.6v3.06c-3.28,.05-5.57,.27-6.88,.64-1.38,.4-2.22,1.19-2.52,2.38-.19,.59-.28,1.5-.28,2.74v37.88c.04,1.91,.32,3.21,.84,3.9,.67,.89,2.24,1.44,4.7,1.65,1.19,.11,2.57,.17,4.14,.2v3.06c-6.6-.4-12.34-.6-17.22-.6s-10.62,.2-17.22,.6v-3.06c3.32-.08,5.61-.29,6.88-.64,1.34-.43,2.18-1.22,2.52-2.38,.19-.62,.28-1.53,.28-2.74Z"/>
    <path class="c" style="fill:white" d="M465.35,31.03v22.65h-6.82V31.03h6.82Z"/>
    <path class="c" style="fill:white" d="M510.46,86.41v4.64c-1.71,1.08-3.17,1.9-4.36,2.46-2.72,1.3-5.7,1.96-8.95,1.96-5,0-8.75-1.33-11.27-4s-3.77-6.64-3.77-11.94v-1.45l.78-33.27h-6.71v-4.25c4.43-.11,8.12-1.71,11.07-4.81,2.87-3.09,4.86-7.19,5.98-12.3h4.42l-.28,16.94h11.52v4.42h-11.57l-.22,33.88c-.04,2.68,.09,4.96,.39,6.82,.26,1.53,.99,2.7,2.18,3.52,.82,.6,1.83,.9,3.02,.9,2.46,0,5.05-1.17,7.77-3.52Z"/>
    <path class="c" style="fill:white" d="M538.45,38.21v46.41c0,3.09,.5,5.03,1.51,5.82,.9,.63,3.13,1.03,6.71,1.17v3.24c-6.26-.48-11.42-.73-15.49-.73s-9.13,.24-15.43,.73v-3.24c3.58-.15,5.81-.54,6.71-1.17,1.01-.78,1.51-2.72,1.51-5.82v-31.25c0-2.27-.08-3.89-.25-4.84-.17-.95-.47-1.65-.92-2.1-.89-.82-3.19-1.23-6.88-1.23v-2.96c7.68-.6,15.19-1.94,22.53-4.03Zm-7.77-22.81c2.2,0,4.08,.86,5.65,2.57,1.57,1.71,2.35,3.8,2.35,6.26s-.76,4.58-2.29,6.26c-1.53,1.68-3.43,2.52-5.7,2.52s-4.19-.86-5.76-2.57c-1.57-1.71-2.35-3.8-2.35-6.26s.76-4.59,2.29-6.26c1.49-1.68,3.43-2.52,5.81-2.52Z"/>
    <path class="c" style="fill:white" d="M561.59,57.77l-8.95-16.61h17.95l-9,16.61Zm0,20.08l9,16.61h-17.95l8.95-16.61Z"/>
    <path class="c" style="fill:white" d="M619.96,113.3h12.47V21.55h-12.47v-3.41h23.43V116.71h-23.43v-3.41Z"/>

</svg>